<svg width="24" height="22" viewBox="0 0 24 22" fill="currentColor" xmlns="http://www.w3.org/2000/svg">
<path d="M11.2939 6.01237L13.5551 6.60819C13.6319 6.62615 13.7006 6.66897 13.7506 6.73C13.8005 6.79103 13.8289 6.86685 13.8314 6.94568C13.8314 7.13735 13.661 7.29568 13.4514 7.29568H11.9681C11.8082 7.29521 11.65 7.2641 11.5018 7.20401C11.2835 7.11235 11.0318 7.13318 10.8643 7.28734L10.0727 8.01649C10.0361 8.04854 10.0045 8.0859 9.97895 8.12732C9.94627 8.18094 9.92452 8.24048 9.91495 8.30254C9.90539 8.3646 9.9082 8.42793 9.92323 8.48889C9.93826 8.54986 9.9652 8.60724 10.0025 8.65775C10.0398 8.70825 10.0868 8.75087 10.1406 8.78314C10.579 9.04625 11.0699 9.20983 11.5785 9.2623V9.99978C11.5785 10.3664 11.9047 10.6664 12.3022 10.6664H13.026C13.4239 10.6664 13.7501 10.3664 13.7501 9.99978V9.26647C15.1222 9.11647 16.1601 7.97483 15.9792 6.64152C15.848 5.68321 15.0434 4.92073 14.0393 4.65407L11.7781 4.05825C11.7013 4.04029 11.6326 3.99747 11.5826 3.93644C11.5327 3.87541 11.5043 3.79958 11.5018 3.72075C11.5018 3.52909 11.6722 3.37076 11.8818 3.37076H13.3651C13.5255 3.37101 13.6844 3.40213 13.833 3.46243C14.0509 3.55409 14.303 3.53326 14.4705 3.37909L15.2622 2.64994C15.2976 2.61857 15.3281 2.58206 15.3526 2.54161C15.3855 2.48802 15.4076 2.42842 15.4174 2.36627C15.4272 2.30412 15.4245 2.24065 15.4097 2.17951C15.3948 2.11838 15.3679 2.0608 15.3307 2.0101C15.2934 1.9594 15.2465 1.91658 15.1926 1.88413C14.754 1.62102 14.263 1.45745 13.7543 1.40497V0.666652C13.7543 0.299994 13.4285 0 13.0306 0H12.3068C11.9089 0 11.5831 0.299994 11.5831 0.666652V1.39997C10.2127 1.54997 9.17272 2.69161 9.35355 4.02491C9.48438 4.98323 10.2914 5.74571 11.2939 6.01237ZM23.5524 13.6705C23.0608 13.2247 22.2941 13.2539 21.7774 13.6705L17.9275 16.7496C17.4549 17.1288 16.8668 17.3346 16.2609 17.333H11.3331C11.1563 17.333 10.9867 17.2627 10.8617 17.1377C10.7367 17.0127 10.6664 16.8431 10.6664 16.6663C10.6664 16.4895 10.7367 16.3199 10.8617 16.1949C10.9867 16.0699 11.1563 15.9997 11.3331 15.9997H14.5951C15.2576 15.9997 15.8747 15.5455 15.9805 14.8913C15.9935 14.8162 15.9999 14.7401 15.9997 14.6638C15.999 14.3107 15.8582 13.9722 15.6083 13.7227C15.3583 13.4732 15.0195 13.333 14.6663 13.333H7.99983C6.87552 13.3333 5.78548 13.7201 4.91239 14.4284L2.97494 15.9997H0.666652C0.489845 15.9997 0.320279 16.0699 0.195258 16.1949C0.0702364 16.3199 0 16.4895 0 16.6663L0 20.6662C0 20.843 0.0702364 21.0126 0.195258 21.1376C0.320279 21.2626 0.489845 21.3329 0.666652 21.3329H15.5317C16.1374 21.3333 16.7252 21.1276 17.1984 20.7496L23.4995 15.708C23.6511 15.5868 23.7743 15.4339 23.8607 15.2601C23.9471 15.0863 23.9945 14.8957 23.9995 14.7017C24.0046 14.5076 23.9673 14.3148 23.8901 14.1367C23.813 13.9586 23.6979 13.7995 23.5528 13.6705H23.5524Z" fill="currentColor"/>
</svg>
