<svg width="24" height="17" viewBox="0 0 24 17" fill="none" xmlns="http://www.w3.org/2000/svg">
<path d="M23.2931 0.842237C21.8385 0.232121 20.3828 4.51027e-08 18.9278 4.51027e-08C14.309 -0.000374949 9.6906 2.33771 5.0718 2.33771C3.91344 2.33771 2.75583 2.19072 1.59747 1.82322C1.46735 1.78197 1.33685 1.76247 1.20936 1.76247C0.563991 1.76247 0 2.26196 0 2.95533V14.8524C0 15.326 0.271121 15.7749 0.706489 15.9571C2.16109 16.5676 3.61682 16.7997 5.0718 16.7997C9.6906 16.7997 14.3094 14.4616 18.9282 14.4616C20.0866 14.4616 21.2442 14.6086 22.4025 14.9761C22.5326 15.0174 22.6631 15.0369 22.7906 15.0369C23.436 15.0369 24 14.5374 24 13.844V1.94734C23.9996 1.47335 23.7285 1.02486 23.2931 0.842237ZM1.79997 3.75819C2.55446 3.94719 3.34195 4.04206 4.15194 4.09306C3.93144 5.19517 2.96245 6.02578 1.79997 6.02578V3.75819ZM1.79997 14.4455V12.6538C3.08883 12.6538 4.13169 13.6764 4.18906 14.9563C3.3442 14.8884 2.55446 14.7196 1.79997 14.4455ZM11.9998 11.9998C10.3427 11.9998 8.99986 10.3877 8.99986 8.39987C8.99986 6.41165 10.3431 4.79993 11.9998 4.79993C13.6565 4.79993 14.9998 6.41165 14.9998 8.39987C14.9998 10.3885 13.6562 11.9998 11.9998 11.9998ZM22.1997 13.0415C21.5427 12.8769 20.8605 12.7847 20.1627 12.7251C20.3828 11.7471 21.1939 11.0046 22.1997 10.8771V13.0415ZM22.1997 4.18756C21.0413 4.04094 20.1424 3.07383 20.1068 1.87947C20.8395 1.96084 21.5352 2.11309 22.1997 2.35421V4.18756Z" fill="inherit"/>
</svg>
