<svg xmlns="http://www.w3.org/2000/svg" width="30" height="32" viewBox="0 0 30 32" fill="currentColor">
<path fill-rule="evenodd" clip-rule="evenodd" d="M10.4995 4C10.4995 1.79087 8.70864 0 6.49951 0C4.29039 0 2.49951 1.79087 2.49951 4C2.49951 6.20913 4.29039 8 6.49951 8C8.70864 8 10.4995 6.20913 10.4995 4ZM8.78951 9H9.49951C11.1564 9 12.4995 10.3431 12.4995 12V20.5C12.4995 21.3284 11.828 22 10.9995 22H9.99951V30.5C9.99951 31.3284 9.32795 32 8.49951 32H4.49951C3.67107 32 2.99951 31.3284 2.99951 30.5V22H1.99951C1.17107 22 0.499512 21.3284 0.499512 20.5V12C0.499512 10.3431 1.84264 9 3.49951 9H4.20951C5.69014 9.68087 7.37007 9.65269 8.78951 9ZM26.0001 4C26.0001 1.79087 24.2093 0 22.0001 0C19.791 0 18.0001 1.79087 18.0001 4C18.0001 6.20913 19.791 8 22.0001 8C24.2093 8 26.0001 6.20913 26.0001 4ZM26.4553 10.1362L29.4553 22.1362C29.6921 23.0831 28.9746 24 28.0001 24H24.5001V30.5C24.5001 31.3284 23.8286 32 23.0001 32H21.0001C20.1717 32 19.5001 31.3284 19.5001 30.5V24H16.0001C15.0241 24 14.3086 23.0816 14.545 22.1362L17.545 10.1362C17.6261 9.81166 17.8134 9.52356 18.077 9.3177C18.3407 9.11183 18.6656 9.00001 19.0001 9H19.7101C21.1908 9.68087 22.8707 9.65269 24.2901 9H25.0001C25.3347 9.00001 25.6596 9.11183 25.9232 9.3177C26.1869 9.52356 26.3742 9.81166 26.4553 10.1362Z" fill="inherit"/>
</svg>