<svg xmlns="http://www.w3.org/2000/svg" width="32" height="32" viewBox="0 0 32 32" fill="none">
<path d="M9.6 16C12.695 16 15.2 12.4214 15.2 8C15.2 3.57857 12.695 0 9.6 0C6.505 0 4 3.57857 4 8C4 12.4214 6.505 16 9.6 16ZM13.44 18.2857H13.025C11.985 19 10.83 19.4286 9.6 19.4286C8.37 19.4286 7.22 19 6.175 18.2857H5.76C2.58 18.2857 0 21.9714 0 26.5143V28.5714C0 30.4643 1.075 32 2.4 32H16.8C18.125 32 19.2 30.4643 19.2 28.5714V26.5143C19.2 21.9714 16.62 18.2857 13.44 18.2857ZM24 16C26.65 16 28.8 12.9286 28.8 9.14286C28.8 5.35714 26.65 2.28571 24 2.28571C21.35 2.28571 19.2 5.35714 19.2 9.14286C19.2 12.9286 21.35 16 24 16ZM26.4 18.2857H26.21C25.515 18.6286 24.78 18.8571 24 18.8571C23.22 18.8571 22.485 18.6286 21.79 18.2857H21.6C20.58 18.2857 19.64 18.7071 18.815 19.3857C20.035 21.2643 20.8 23.7571 20.8 26.5143V29.2571C20.8 29.4143 20.775 29.5643 20.77 29.7143H29.6C30.925 29.7143 32 28.1786 32 26.2857C32 21.8643 29.495 18.2857 26.4 18.2857Z" fill="#5C6173"/>
</svg>