<svg xmlns="http://www.w3.org/2000/svg" width="12" height="25" viewBox="0 0 12 25" fill="none">
  <path d="M5.62547 0.5C7.28232 0.5 8.62547 1.84316 8.62547 3.5C8.62547 5.15684 7.28232 6.5 5.62547 6.5C3.96863 6.5 2.62547 5.15684 2.62547 3.5C2.62547 1.84316 3.96863 0.5 5.62547 0.5ZM11.2169 17.1021L8.96687 8.10214C8.90602 7.85874 8.76555 7.64267 8.5678 7.48827C8.37005 7.33387 8.12636 7.25 7.87547 7.25H7.34297C6.2784 7.73952 5.01844 7.76066 3.90797 7.25H3.37547C3.12459 7.25 2.8809 7.33387 2.68315 7.48827C2.4854 7.64267 2.34493 7.85874 2.28408 8.10214L0.034084 17.1021C-0.143197 17.8112 0.393428 18.5 1.12547 18.5H3.75047V23.375C3.75047 23.9963 4.25415 24.5 4.87547 24.5H6.37547C6.9968 24.5 7.50047 23.9963 7.50047 23.375V18.5H10.1255C10.8563 18.5 11.3944 17.8123 11.2169 17.1021Z" fill="#5C6173"/>
</svg>