<svg xmlns="http://www.w3.org/2000/svg" width="9" height="25" viewBox="0 0 9 25" fill="none">
  <path d="M4.5 0.5C6.15685 0.5 7.5 1.84316 7.5 3.5C7.5 5.15684 6.15685 6.5 4.5 6.5C2.84316 6.5 1.5 5.15684 1.5 3.5C1.5 1.84316 2.84316 0.5 4.5 0.5ZM6.75 7.25H6.2175C5.15292 7.73952 3.89297 7.76066 2.7825 7.25H2.25C1.00734 7.25 0 8.25734 0 9.5V15.875C0 16.4963 0.503672 17 1.125 17H1.875V23.375C1.875 23.9963 2.37867 24.5 3 24.5H6C6.62133 24.5 7.125 23.9963 7.125 23.375V17H7.875C8.49633 17 9 16.4963 9 15.875V9.5C9 8.25734 7.99266 7.25 6.75 7.25Z" fill="#5C6173"/>
</svg>